solid Exported from Blender-2.79 (sub 0)
facet normal -1.000000 0.000000 -0.000000
outer loop
vertex -29.999992 -16.667109 -24.944096
vertex -29.999992 -11.480502 -27.716393
vertex -29.999990 -15.388418 -37.150932
endloop
endfacet
facet normal -1.000000 -0.000001 -0.000000
outer loop
vertex -29.999990 -15.388418 -37.150932
vertex -29.999990 -22.340521 -33.434952
vertex -29.999992 -16.667109 -24.944096
endloop
endfacet
facet normal 1.000000 0.000000 0.000000
outer loop
vertex 29.999992 16.667141 24.944073
vertex 29.999992 21.213234 21.213181
vertex 29.999990 28.434122 28.434055
endloop
endfacet
facet normal 1.000000 0.000000 0.000000
outer loop
vertex 29.999990 28.434122 28.434055
vertex 29.999990 22.340559 33.434933
vertex 29.999992 16.667141 24.944073
endloop
endfacet
facet normal -1.000000 0.000000 -0.000000
outer loop
vertex -30.000002 27.716381 -11.480510
vertex -30.000004 29.423553 -5.852715
vertex -30.000004 39.439205 -7.844952
endloop
endfacet
facet normal -1.000000 -0.000000 -0.000000
outer loop
vertex -30.000004 39.439205 -7.844952
vertex -30.000002 37.150917 -15.388422
vertex -30.000002 27.716381 -11.480510
endloop
endfacet
facet normal 1.000000 0.000001 0.000000
outer loop
vertex 30.000002 -27.716375 11.480521
vertex 30.000000 -24.944075 16.667128
vertex 30.000000 -33.434933 22.340542
endloop
endfacet
facet normal 1.000000 0.000000 0.000000
outer loop
vertex 30.000000 -33.434933 22.340542
vertex 30.000002 -37.150913 15.388437
vertex 30.000002 -27.716375 11.480521
endloop
endfacet
facet normal -1.000000 -0.000001 -0.000000
outer loop
vertex -30.000008 21.213226 21.213171
vertex -30.000008 16.667133 24.944061
vertex -30.000010 22.340551 33.434917
endloop
endfacet
facet normal -1.000000 0.000000 -0.000000
outer loop
vertex -30.000010 22.340551 33.434917
vertex -30.000010 28.434114 28.434044
vertex -30.000008 21.213226 21.213171
endloop
endfacet
facet normal 1.000000 0.000000 0.000000
outer loop
vertex 30.000006 -5.852702 -29.423553
vertex 30.000008 -11.480494 -27.716381
vertex 30.000010 -15.388411 -37.150917
endloop
endfacet
facet normal 1.000000 0.000000 0.000000
outer loop
vertex 30.000010 -15.388411 -37.150917
vertex 30.000010 -7.844941 -39.439201
vertex 30.000006 -5.852702 -29.423553
endloop
endfacet
facet normal -1.000000 -0.000000 -0.000000
outer loop
vertex -30.000000 -24.944082 16.667116
vertex -29.999998 -27.716383 11.480511
vertex -29.999998 -37.150921 15.388427
endloop
endfacet
facet normal -1.000000 0.000000 -0.000000
outer loop
vertex -29.999998 -37.150921 15.388427
vertex -30.000000 -33.434940 22.340530
vertex -30.000000 -24.944082 16.667116
endloop
endfacet
facet normal -1.000000 0.000000 -0.000000
outer loop
vertex -29.999992 -11.480502 -27.716393
vertex -29.999994 -5.852710 -29.423565
vertex -29.999990 -7.844948 -39.439217
endloop
endfacet
facet normal -1.000000 0.000000 -0.000000
outer loop
vertex -29.999990 -7.844948 -39.439217
vertex -29.999990 -15.388418 -37.150932
vertex -29.999992 -11.480502 -27.716393
endloop
endfacet
facet normal 1.000000 0.000000 0.000000
outer loop
vertex 29.999992 11.480537 27.716377
vertex 29.999992 16.667141 24.944073
vertex 29.999990 22.340559 33.434933
endloop
endfacet
facet normal 1.000000 0.000000 0.000000
outer loop
vertex 29.999990 22.340559 33.434933
vertex 29.999990 15.388457 37.150913
vertex 29.999992 11.480537 27.716377
endloop
endfacet
facet normal 1.000000 0.000000 0.000000
outer loop
vertex 29.999996 30.000004 0.000006
vertex 29.999996 29.423561 -5.852704
vertex 29.999996 39.439213 -7.844941
endloop
endfacet
facet normal 1.000000 0.000000 0.000000
outer loop
vertex 29.999996 39.439213 -7.844941
vertex 29.999994 40.211872 0.000006
vertex 29.999996 30.000004 0.000006
endloop
endfacet
facet normal 1.000000 0.000001 0.000000
outer loop
vertex 30.000004 -29.423552 5.852728
vertex 30.000002 -27.716375 11.480521
vertex 30.000002 -37.150913 15.388437
endloop
endfacet
facet normal 1.000000 -0.000000 0.000000
outer loop
vertex 30.000002 -37.150913 15.388437
vertex 30.000004 -39.439201 7.844968
vertex 30.000004 -29.423552 5.852728
endloop
endfacet
facet normal -1.000000 0.000000 -0.000000
outer loop
vertex -30.000008 16.667133 24.944061
vertex -30.000008 11.480530 27.716366
vertex -30.000010 15.388450 37.150898
endloop
endfacet
facet normal -1.000000 -0.000000 -0.000000
outer loop
vertex -30.000010 15.388450 37.150898
vertex -30.000010 22.340551 33.434917
vertex -30.000008 16.667133 24.944061
endloop
endfacet
facet normal -1.000000 0.000000 0.000000
outer loop
vertex -30.000004 29.423553 -5.852715
vertex -30.000004 29.999996 -0.000006
vertex -30.000006 40.211864 -0.000006
endloop
endfacet
facet normal -1.000000 0.000000 -0.000000
outer loop
vertex -30.000006 40.211864 -0.000006
vertex -30.000004 39.439205 -7.844952
vertex -30.000004 29.423553 -5.852715
endloop
endfacet
facet normal 1.000000 0.000001 0.000000
outer loop
vertex 30.000006 0.000006 -29.999994
vertex 30.000006 -5.852702 -29.423553
vertex 30.000010 -7.844941 -39.439201
endloop
endfacet
facet normal 1.000000 -0.000001 0.000000
outer loop
vertex 30.000010 -7.844941 -39.439201
vertex 30.000008 0.000004 -40.211861
vertex 30.000006 0.000006 -29.999994
endloop
endfacet
facet normal -1.000000 0.000000 -0.000000
outer loop
vertex -29.999998 -27.716383 11.480511
vertex -29.999996 -29.423559 5.852715
vertex -29.999996 -39.439209 7.844956
endloop
endfacet
facet normal -1.000000 -0.000000 -0.000000
outer loop
vertex -29.999996 -39.439209 7.844956
vertex -29.999998 -37.150921 15.388427
vertex -29.999998 -27.716383 11.480511
endloop
endfacet
facet normal -1.000000 0.000001 -0.000000
outer loop
vertex -29.999994 -5.852710 -29.423565
vertex -29.999994 -0.000002 -30.000006
vertex -29.999992 -0.000004 -40.211876
endloop
endfacet
facet normal -1.000000 0.000000 -0.000000
outer loop
vertex -29.999992 -0.000004 -40.211876
vertex -29.999990 -7.844948 -39.439217
vertex -29.999994 -5.852710 -29.423565
endloop
endfacet
facet normal 1.000000 0.000000 0.000000
outer loop
vertex 29.999994 5.852745 29.423557
vertex 29.999992 11.480537 27.716377
vertex 29.999990 15.388457 37.150913
endloop
endfacet
facet normal 1.000000 0.000000 0.000000
outer loop
vertex 29.999990 15.388457 37.150913
vertex 29.999990 7.844989 39.439209
vertex 29.999994 5.852745 29.423557
endloop
endfacet
facet normal 1.000000 -0.000000 0.000000
outer loop
vertex 30.000004 -29.999996 0.000016
vertex 30.000004 -29.423552 5.852728
vertex 30.000004 -39.439201 7.844968
endloop
endfacet
facet normal 1.000000 0.000000 0.000000
outer loop
vertex 30.000004 -39.439201 7.844968
vertex 30.000006 -40.211868 0.000019
vertex 30.000004 -29.999996 0.000016
endloop
endfacet
facet normal -1.000000 0.000000 -0.000000
outer loop
vertex -30.000008 11.480530 27.716366
vertex -30.000006 5.852736 29.423546
vertex -30.000010 7.844982 39.439194
endloop
endfacet
facet normal -1.000000 0.000000 -0.000000
outer loop
vertex -30.000010 7.844982 39.439194
vertex -30.000010 15.388450 37.150898
vertex -30.000008 11.480530 27.716366
endloop
endfacet
facet normal 1.000000 0.000000 0.000000
outer loop
vertex 30.000006 5.852715 -29.423552
vertex 30.000006 0.000006 -29.999994
vertex 30.000008 0.000004 -40.211861
endloop
endfacet
facet normal 1.000000 0.000000 0.000000
outer loop
vertex 30.000008 0.000004 -40.211861
vertex 30.000008 7.844948 -39.439198
vertex 30.000006 5.852715 -29.423552
endloop
endfacet
facet normal -1.000000 -0.000000 0.000000
outer loop
vertex -29.999996 -29.423559 5.852715
vertex -29.999996 -30.000004 0.000004
vertex -29.999994 -40.211876 0.000007
endloop
endfacet
facet normal -1.000000 0.000000 -0.000000
outer loop
vertex -29.999994 -40.211876 0.000007
vertex -29.999996 -39.439209 7.844956
vertex -29.999996 -29.423559 5.852715
endloop
endfacet
facet normal -1.000000 0.000000 -0.000000
outer loop
vertex -29.999994 -0.000002 -30.000006
vertex -29.999994 5.852706 -29.423563
vertex -29.999992 7.844941 -39.439213
endloop
endfacet
facet normal -1.000000 -0.000001 -0.000000
outer loop
vertex -29.999992 7.844941 -39.439213
vertex -29.999992 -0.000004 -40.211876
vertex -29.999994 -0.000002 -30.000006
endloop
endfacet
facet normal 1.000000 0.000000 0.000000
outer loop
vertex 29.999994 0.000033 30.000006
vertex 29.999994 5.852745 29.423557
vertex 29.999990 7.844989 39.439209
endloop
endfacet
facet normal 1.000000 0.000000 0.000000
outer loop
vertex 29.999990 7.844989 39.439209
vertex 29.999992 0.000040 40.211876
vertex 29.999994 0.000033 30.000006
endloop
endfacet
facet normal 1.000000 0.000000 0.000000
outer loop
vertex 30.000006 -29.423555 -5.852696
vertex 30.000004 -29.999996 0.000016
vertex 30.000006 -40.211868 0.000019
endloop
endfacet
facet normal 1.000000 0.000000 0.000000
outer loop
vertex 30.000006 -40.211868 0.000019
vertex 30.000008 -39.439209 -7.844931
vertex 30.000006 -29.423555 -5.852696
endloop
endfacet
facet normal -1.000000 0.000000 -0.000000
outer loop
vertex -30.000006 5.852736 29.423546
vertex -30.000006 0.000025 29.999994
vertex -30.000008 0.000032 40.211861
endloop
endfacet
facet normal -1.000000 0.000000 -0.000000
outer loop
vertex -30.000008 0.000032 40.211861
vertex -30.000010 7.844982 39.439194
vertex -30.000006 5.852736 29.423546
endloop
endfacet
facet normal 1.000000 0.000000 0.000000
outer loop
vertex 30.000004 11.480507 -27.716379
vertex 30.000006 5.852715 -29.423552
vertex 30.000008 7.844948 -39.439198
endloop
endfacet
facet normal 1.000000 0.000000 0.000000
outer loop
vertex 30.000008 7.844948 -39.439198
vertex 30.000006 15.388416 -37.150913
vertex 30.000004 11.480507 -27.716379
endloop
endfacet
facet normal -1.000000 -0.000001 -0.000000
outer loop
vertex -29.999996 -30.000004 0.000004
vertex -29.999994 -29.423563 -5.852709
vertex -29.999992 -39.439217 -7.844942
endloop
endfacet
facet normal -1.000000 -0.000000 -0.000000
outer loop
vertex -29.999992 -39.439217 -7.844942
vertex -29.999994 -40.211876 0.000007
vertex -29.999996 -30.000004 0.000004
endloop
endfacet
facet normal -1.000000 -0.000001 -0.000000
outer loop
vertex -29.999994 5.852706 -29.423563
vertex -29.999996 11.480499 -27.716391
vertex -29.999994 15.388409 -37.150928
endloop
endfacet
facet normal -1.000000 0.000000 -0.000000
outer loop
vertex -29.999994 15.388409 -37.150928
vertex -29.999992 7.844941 -39.439213
vertex -29.999994 5.852706 -29.423563
endloop
endfacet
facet normal 1.000000 0.000000 0.000000
outer loop
vertex 29.999994 -5.852679 29.423569
vertex 29.999994 0.000033 30.000006
vertex 29.999992 0.000040 40.211876
endloop
endfacet
facet normal 1.000000 -0.000001 0.000000
outer loop
vertex 29.999992 0.000040 40.211876
vertex 29.999992 -7.844911 39.439224
vertex 29.999994 -5.852679 29.423569
endloop
endfacet
facet normal 1.000000 0.000000 0.000000
outer loop
vertex 30.000006 -27.716385 -11.480493
vertex 30.000006 -29.423555 -5.852696
vertex 30.000008 -39.439209 -7.844931
endloop
endfacet
facet normal 1.000000 0.000000 0.000000
outer loop
vertex 30.000008 -39.439209 -7.844931
vertex 30.000008 -37.150925 -15.388403
vertex 30.000006 -27.716385 -11.480493
endloop
endfacet
facet normal 0.000000 -0.956941 -0.290283
outer loop
vertex -30.000006 29.423563 5.852658
vertex 29.999994 29.423571 5.852670
vertex 29.999994 27.716406 11.480469
endloop
endfacet
facet normal 0.000000 -0.956941 -0.290283
outer loop
vertex 29.999994 27.716406 11.480469
vertex -30.000006 27.716398 11.480457
vertex -30.000006 29.423563 5.852658
endloop
endfacet
facet normal -1.000000 0.000000 -0.000000
outer loop
vertex -30.000006 0.000025 29.999994
vertex -30.000006 -5.852688 29.423557
vertex -30.000008 -7.844918 39.439209
endloop
endfacet
facet normal -1.000000 0.000000 -0.000000
outer loop
vertex -30.000008 -7.844918 39.439209
vertex -30.000008 0.000032 40.211861
vertex -30.000006 0.000025 29.999994
endloop
endfacet
facet normal 1.000000 0.000000 0.000000
outer loop
vertex 30.000002 16.667109 -24.944084
vertex 30.000004 11.480507 -27.716379
vertex 30.000006 15.388416 -37.150913
endloop
endfacet
facet normal 1.000000 0.000000 0.000000
outer loop
vertex 30.000006 15.388416 -37.150913
vertex 30.000004 22.340515 -33.434940
vertex 30.000002 16.667109 -24.944084
endloop
endfacet
facet normal 0.000000 -0.995185 -0.098016
outer loop
vertex -30.000004 29.999996 -0.000006
vertex 29.999996 30.000004 0.000006
vertex 29.999994 29.423571 5.852670
endloop
endfacet
facet normal 0.000000 -0.995185 -0.098017
outer loop
vertex 29.999994 29.423571 5.852670
vertex -30.000006 29.423563 5.852658
vertex -30.000004 29.999996 -0.000006
endloop
endfacet
facet normal -0.000000 0.995185 -0.098018
outer loop
vertex -30.000006 40.211864 -0.000006
vertex 29.999994 40.211872 0.000006
vertex 29.999996 39.439213 -7.844941
endloop
endfacet
facet normal -0.000000 0.995185 -0.098016
outer loop
vertex 29.999996 39.439213 -7.844941
vertex -30.000004 39.439205 -7.844952
vertex -30.000006 40.211864 -0.000006
endloop
endfacet
facet normal -0.000000 0.956940 -0.290284
outer loop
vertex -30.000004 39.439205 -7.844952
vertex 29.999996 39.439213 -7.844941
vertex 29.999998 37.150925 -15.388411
endloop
endfacet
facet normal -0.000000 0.956940 -0.290286
outer loop
vertex 29.999998 37.150925 -15.388411
vertex -30.000002 37.150917 -15.388422
vertex -30.000004 39.439205 -7.844952
endloop
endfacet
facet normal 0.000000 0.881921 -0.471397
outer loop
vertex -30.000002 37.150917 -15.388422
vertex 29.999998 37.150925 -15.388411
vertex 30.000000 33.434948 -22.340511
endloop
endfacet
facet normal -0.000000 0.881921 -0.471396
outer loop
vertex 30.000000 33.434948 -22.340511
vertex -30.000000 33.434940 -22.340523
vertex -30.000002 37.150917 -15.388422
endloop
endfacet
facet normal 0.000000 0.773010 -0.634394
outer loop
vertex -30.000000 33.434940 -22.340523
vertex 30.000000 33.434948 -22.340511
vertex 30.000002 28.434086 -28.434078
endloop
endfacet
facet normal 0.000000 0.773010 -0.634393
outer loop
vertex 30.000002 28.434086 -28.434078
vertex -29.999998 28.434078 -28.434088
vertex -30.000000 33.434940 -22.340523
endloop
endfacet
facet normal 0.000000 0.634393 -0.773011
outer loop
vertex -29.999998 28.434078 -28.434088
vertex 30.000002 28.434086 -28.434078
vertex 30.000004 22.340515 -33.434940
endloop
endfacet
facet normal 0.000000 0.634393 -0.773010
outer loop
vertex 30.000004 22.340515 -33.434940
vertex -29.999996 22.340508 -33.434952
vertex -29.999998 28.434078 -28.434088
endloop
endfacet
facet normal 0.000000 0.471397 -0.881921
outer loop
vertex -29.999996 22.340508 -33.434952
vertex 30.000004 22.340515 -33.434940
vertex 30.000006 15.388416 -37.150913
endloop
endfacet
facet normal 0.000000 0.471397 -0.881921
outer loop
vertex 30.000006 15.388416 -37.150913
vertex -29.999994 15.388409 -37.150928
vertex -29.999996 22.340508 -33.434952
endloop
endfacet
facet normal 0.000000 0.290284 -0.956940
outer loop
vertex -29.999994 15.388409 -37.150928
vertex 30.000006 15.388416 -37.150913
vertex 30.000008 7.844948 -39.439198
endloop
endfacet
facet normal 0.000000 0.290285 -0.956940
outer loop
vertex 30.000008 7.844948 -39.439198
vertex -29.999992 7.844941 -39.439213
vertex -29.999994 15.388409 -37.150928
endloop
endfacet
facet normal 0.000000 0.098018 -0.995185
outer loop
vertex -29.999992 7.844941 -39.439213
vertex 30.000008 7.844948 -39.439198
vertex 30.000008 0.000004 -40.211861
endloop
endfacet
facet normal 0.000000 0.098018 -0.995185
outer loop
vertex 30.000008 0.000004 -40.211861
vertex -29.999992 -0.000004 -40.211876
vertex -29.999992 7.844941 -39.439213
endloop
endfacet
facet normal 0.000000 -0.098017 -0.995185
outer loop
vertex -29.999992 -0.000004 -40.211876
vertex 30.000008 0.000004 -40.211861
vertex 30.000010 -7.844941 -39.439201
endloop
endfacet
facet normal 0.000000 -0.098017 -0.995185
outer loop
vertex 30.000010 -7.844941 -39.439201
vertex -29.999990 -7.844948 -39.439217
vertex -29.999992 -0.000004 -40.211876
endloop
endfacet
facet normal 0.000000 -0.290284 -0.956940
outer loop
vertex -29.999990 -7.844948 -39.439217
vertex 30.000010 -7.844941 -39.439201
vertex 30.000010 -15.388411 -37.150917
endloop
endfacet
facet normal 0.000000 -0.290284 -0.956940
outer loop
vertex 30.000010 -15.388411 -37.150917
vertex -29.999990 -15.388418 -37.150932
vertex -29.999990 -7.844948 -39.439217
endloop
endfacet
facet normal 0.000000 -0.471397 -0.881921
outer loop
vertex -29.999990 -15.388418 -37.150932
vertex 30.000010 -15.388411 -37.150917
vertex 30.000010 -22.340513 -33.434940
endloop
endfacet
facet normal 0.000000 -0.471397 -0.881921
outer loop
vertex 30.000010 -22.340513 -33.434940
vertex -29.999990 -22.340521 -33.434952
vertex -29.999990 -15.388418 -37.150932
endloop
endfacet
facet normal 0.000000 -0.634393 -0.773010
outer loop
vertex -29.999990 -22.340521 -33.434952
vertex 30.000010 -22.340513 -33.434940
vertex 30.000010 -28.434080 -28.434078
endloop
endfacet
facet normal 0.000000 -0.634394 -0.773010
outer loop
vertex 30.000010 -28.434080 -28.434078
vertex -29.999990 -28.434088 -28.434088
vertex -29.999990 -22.340521 -33.434952
endloop
endfacet
facet normal 0.000000 -0.773010 -0.634394
outer loop
vertex -29.999990 -28.434088 -28.434088
vertex 30.000010 -28.434080 -28.434078
vertex 30.000010 -33.434948 -22.340509
endloop
endfacet
facet normal 0.000000 -0.773010 -0.634394
outer loop
vertex 30.000010 -33.434948 -22.340509
vertex -29.999990 -33.434952 -22.340521
vertex -29.999990 -28.434088 -28.434088
endloop
endfacet
facet normal 0.000000 -0.881922 -0.471396
outer loop
vertex -29.999990 -33.434952 -22.340521
vertex 30.000010 -33.434948 -22.340509
vertex 30.000008 -37.150925 -15.388403
endloop
endfacet
facet normal 0.000000 -0.881921 -0.471397
outer loop
vertex 30.000008 -37.150925 -15.388403
vertex -29.999992 -37.150932 -15.388414
vertex -29.999990 -33.434952 -22.340521
endloop
endfacet
facet normal 0.000000 -0.956940 -0.290285
outer loop
vertex -29.999992 -37.150932 -15.388414
vertex 30.000008 -37.150925 -15.388403
vertex 30.000008 -39.439209 -7.844931
endloop
endfacet
facet normal 0.000000 -0.956941 -0.290284
outer loop
vertex 30.000008 -39.439209 -7.844931
vertex -29.999992 -39.439217 -7.844942
vertex -29.999992 -37.150932 -15.388414
endloop
endfacet
facet normal 0.000000 -0.995185 -0.098017
outer loop
vertex -29.999992 -39.439217 -7.844942
vertex 30.000008 -39.439209 -7.844931
vertex 30.000006 -40.211868 0.000019
endloop
endfacet
facet normal 0.000000 -0.995185 -0.098017
outer loop
vertex 30.000006 -40.211868 0.000019
vertex -29.999994 -40.211876 0.000007
vertex -29.999992 -39.439217 -7.844942
endloop
endfacet
facet normal 0.000000 -0.995185 0.098018
outer loop
vertex -29.999994 -40.211876 0.000007
vertex 30.000006 -40.211868 0.000019
vertex 30.000004 -39.439201 7.844968
endloop
endfacet
facet normal 0.000000 -0.995185 0.098018
outer loop
vertex 30.000004 -39.439201 7.844968
vertex -29.999996 -39.439209 7.844956
vertex -29.999994 -40.211876 0.000007
endloop
endfacet
facet normal 0.000000 -0.956940 0.290285
outer loop
vertex -29.999996 -39.439209 7.844956
vertex 30.000004 -39.439201 7.844968
vertex 30.000002 -37.150913 15.388437
endloop
endfacet
facet normal 0.000000 -0.956940 0.290285
outer loop
vertex 30.000002 -37.150913 15.388437
vertex -29.999998 -37.150921 15.388427
vertex -29.999996 -39.439209 7.844956
endloop
endfacet
facet normal 0.000000 -0.881922 0.471396
outer loop
vertex -29.999998 -37.150921 15.388427
vertex 30.000002 -37.150913 15.388437
vertex 30.000000 -33.434933 22.340542
endloop
endfacet
facet normal 0.000000 -0.881921 0.471398
outer loop
vertex 30.000000 -33.434933 22.340542
vertex -30.000000 -33.434940 22.340530
vertex -29.999998 -37.150921 15.388427
endloop
endfacet
facet normal -0.000000 -0.773010 0.634394
outer loop
vertex -30.000000 -33.434940 22.340530
vertex 30.000000 -33.434933 22.340542
vertex 29.999998 -28.434063 28.434109
endloop
endfacet
facet normal -0.000000 -0.773010 0.634394
outer loop
vertex 29.999998 -28.434063 28.434109
vertex -30.000002 -28.434071 28.434097
vertex -30.000000 -33.434940 22.340530
endloop
endfacet
facet normal -0.000000 -0.634393 0.773011
outer loop
vertex -30.000002 -28.434071 28.434097
vertex 29.999998 -28.434063 28.434109
vertex 29.999996 -22.340492 33.434967
endloop
endfacet
facet normal -0.000000 -0.634392 0.773011
outer loop
vertex 29.999996 -22.340492 33.434967
vertex -30.000004 -22.340498 33.434952
vertex -30.000002 -28.434071 28.434097
endloop
endfacet
facet normal -0.000000 -0.471396 0.881921
outer loop
vertex -30.000004 -22.340498 33.434952
vertex 29.999996 -22.340492 33.434967
vertex 29.999994 -15.388386 37.150944
endloop
endfacet
facet normal -0.000000 -0.471397 0.881921
outer loop
vertex 29.999994 -15.388386 37.150944
vertex -30.000006 -15.388392 37.150932
vertex -30.000004 -22.340498 33.434952
endloop
endfacet
facet normal -0.000000 -0.290284 0.956941
outer loop
vertex -30.000006 -15.388392 37.150932
vertex 29.999994 -15.388386 37.150944
vertex 29.999992 -7.844911 39.439224
endloop
endfacet
facet normal -0.000000 -0.290283 0.956941
outer loop
vertex 29.999992 -7.844911 39.439224
vertex -30.000008 -7.844918 39.439209
vertex -30.000006 -15.388392 37.150932
endloop
endfacet
facet normal -0.000000 -0.098016 0.995185
outer loop
vertex -30.000008 -7.844918 39.439209
vertex 29.999992 -7.844911 39.439224
vertex 29.999992 0.000040 40.211876
endloop
endfacet
facet normal -0.000000 -0.098016 0.995185
outer loop
vertex 29.999992 0.000040 40.211876
vertex -30.000008 0.000032 40.211861
vertex -30.000008 -7.844918 39.439209
endloop
endfacet
facet normal -0.000000 0.098018 0.995185
outer loop
vertex -30.000008 0.000032 40.211861
vertex 29.999992 0.000040 40.211876
vertex 29.999990 7.844989 39.439209
endloop
endfacet
facet normal -0.000000 0.098018 0.995185
outer loop
vertex 29.999990 7.844989 39.439209
vertex -30.000010 7.844982 39.439194
vertex -30.000008 0.000032 40.211861
endloop
endfacet
facet normal -0.000000 0.290286 0.956940
outer loop
vertex -30.000010 7.844982 39.439194
vertex 29.999990 7.844989 39.439209
vertex 29.999990 15.388457 37.150913
endloop
endfacet
facet normal -0.000000 0.290286 0.956940
outer loop
vertex 29.999990 15.388457 37.150913
vertex -30.000010 15.388450 37.150898
vertex -30.000010 7.844982 39.439194
endloop
endfacet
facet normal -0.000000 0.471397 0.881921
outer loop
vertex -30.000010 15.388450 37.150898
vertex 29.999990 15.388457 37.150913
vertex 29.999990 22.340559 33.434933
endloop
endfacet
facet normal -0.000000 0.471397 0.881921
outer loop
vertex 29.999990 22.340559 33.434933
vertex -30.000010 22.340551 33.434917
vertex -30.000010 15.388450 37.150898
endloop
endfacet
facet normal -0.000000 0.634395 0.773009
outer loop
vertex -30.000010 22.340551 33.434917
vertex 29.999990 22.340559 33.434933
vertex 29.999990 28.434122 28.434055
endloop
endfacet
facet normal -0.000000 0.634395 0.773009
outer loop
vertex 29.999990 28.434122 28.434055
vertex -30.000010 28.434114 28.434044
vertex -30.000010 22.340551 33.434917
endloop
endfacet
facet normal -0.000000 0.773011 0.634392
outer loop
vertex -30.000010 28.434114 28.434044
vertex 29.999990 28.434122 28.434055
vertex 29.999990 33.434978 22.340477
endloop
endfacet
facet normal -0.000000 0.773011 0.634392
outer loop
vertex 29.999990 33.434978 22.340477
vertex -30.000010 33.434971 22.340466
vertex -30.000010 28.434114 28.434044
endloop
endfacet
facet normal -0.000000 0.881922 0.471395
outer loop
vertex -30.000010 33.434971 22.340466
vertex 29.999990 33.434978 22.340477
vertex 29.999992 37.150944 15.388368
endloop
endfacet
facet normal -0.000000 0.881922 0.471396
outer loop
vertex 29.999992 37.150944 15.388368
vertex -30.000008 37.150940 15.388356
vertex -30.000010 33.434971 22.340466
endloop
endfacet
facet normal -0.000000 0.956941 0.290284
outer loop
vertex -30.000008 37.150940 15.388356
vertex 29.999992 37.150944 15.388368
vertex 29.999992 39.439224 7.844893
endloop
endfacet
facet normal -0.000000 0.956941 0.290284
outer loop
vertex 29.999992 39.439224 7.844893
vertex -30.000008 39.439217 7.844881
vertex -30.000008 37.150940 15.388356
endloop
endfacet
facet normal -0.000000 0.995185 0.098016
outer loop
vertex -30.000008 39.439217 7.844881
vertex 29.999992 39.439224 7.844893
vertex 29.999994 40.211872 0.000006
endloop
endfacet
facet normal -0.000000 0.995185 0.098017
outer loop
vertex 29.999994 40.211872 0.000006
vertex -30.000006 40.211864 -0.000006
vertex -30.000008 39.439217 7.844881
endloop
endfacet
facet normal 1.000000 -0.000001 0.000000
outer loop
vertex 29.999996 29.423561 -5.852704
vertex 29.999998 27.716389 -11.480498
vertex 29.999998 37.150925 -15.388411
endloop
endfacet
facet normal 1.000000 0.000001 0.000000
outer loop
vertex 29.999998 37.150925 -15.388411
vertex 29.999996 39.439213 -7.844941
vertex 29.999996 29.423561 -5.852704
endloop
endfacet
facet normal -1.000000 0.000000 -0.000000
outer loop
vertex -30.000002 -21.213194 21.213211
vertex -30.000000 -24.944082 16.667116
vertex -30.000000 -33.434940 22.340530
endloop
endfacet
facet normal -1.000000 -0.000000 -0.000000
outer loop
vertex -30.000000 -33.434940 22.340530
vertex -30.000002 -28.434071 28.434097
vertex -30.000002 -21.213194 21.213211
endloop
endfacet
facet normal 1.000000 0.000000 0.000000
outer loop
vertex 30.000008 -11.480494 -27.716381
vertex 30.000008 -16.667101 -24.944084
vertex 30.000010 -22.340513 -33.434940
endloop
endfacet
facet normal 1.000000 0.000000 0.000000
outer loop
vertex 30.000010 -22.340513 -33.434940
vertex 30.000010 -15.388411 -37.150917
vertex 30.000008 -11.480494 -27.716381
endloop
endfacet
facet normal -1.000000 0.000001 -0.000000
outer loop
vertex -30.000008 24.944107 16.667068
vertex -30.000008 21.213226 21.213171
vertex -30.000010 28.434114 28.434044
endloop
endfacet
facet normal -1.000000 -0.000000 -0.000000
outer loop
vertex -30.000010 28.434114 28.434044
vertex -30.000010 33.434971 22.340466
vertex -30.000008 24.944107 16.667068
endloop
endfacet
facet normal 1.000000 0.000001 0.000000
outer loop
vertex 30.000000 -24.944075 16.667128
vertex 29.999998 -21.213186 21.213223
vertex 29.999998 -28.434063 28.434109
endloop
endfacet
facet normal 1.000000 0.000000 0.000000
outer loop
vertex 29.999998 -28.434063 28.434109
vertex 30.000000 -33.434933 22.340542
vertex 30.000000 -24.944075 16.667128
endloop
endfacet
facet normal -1.000000 0.000000 -0.000000
outer loop
vertex -30.000000 24.944084 -16.667112
vertex -30.000002 27.716381 -11.480510
vertex -30.000002 37.150917 -15.388422
endloop
endfacet
facet normal -1.000000 0.000000 -0.000000
outer loop
vertex -30.000002 37.150917 -15.388422
vertex -30.000000 33.434940 -22.340523
vertex -30.000000 24.944084 -16.667112
endloop
endfacet
facet normal 1.000000 0.000000 0.000000
outer loop
vertex 29.999992 21.213234 21.213181
vertex 29.999992 24.944113 16.667080
vertex 29.999990 33.434978 22.340477
endloop
endfacet
facet normal 1.000000 0.000000 0.000000
outer loop
vertex 29.999990 33.434978 22.340477
vertex 29.999990 28.434122 28.434055
vertex 29.999992 21.213234 21.213181
endloop
endfacet
facet normal -1.000000 0.000001 -0.000000
outer loop
vertex -29.999992 -21.213205 -21.213207
vertex -29.999992 -16.667109 -24.944096
vertex -29.999990 -22.340521 -33.434952
endloop
endfacet
facet normal -1.000000 -0.000000 -0.000000
outer loop
vertex -29.999990 -22.340521 -33.434952
vertex -29.999990 -28.434088 -28.434088
vertex -29.999992 -21.213205 -21.213207
endloop
endfacet
facet normal 1.000000 0.000001 0.000000
outer loop
vertex 29.999998 27.716389 -11.480498
vertex 30.000000 24.944092 -16.667101
vertex 30.000000 33.434948 -22.340511
endloop
endfacet
facet normal 1.000000 0.000000 0.000000
outer loop
vertex 30.000000 33.434948 -22.340511
vertex 29.999998 37.150925 -15.388411
vertex 29.999998 27.716389 -11.480498
endloop
endfacet
facet normal -1.000000 0.000000 0.000000
outer loop
vertex -30.000002 -16.667091 24.944096
vertex -30.000002 -21.213194 21.213211
vertex -30.000002 -28.434071 28.434097
endloop
endfacet
facet normal -1.000000 -0.000000 -0.000000
outer loop
vertex -30.000002 -28.434071 28.434097
vertex -30.000004 -22.340498 33.434952
vertex -30.000002 -16.667091 24.944096
endloop
endfacet
facet normal 1.000000 0.000000 0.000000
outer loop
vertex 30.000008 -16.667101 -24.944084
vertex 30.000008 -21.213198 -21.213196
vertex 30.000010 -28.434080 -28.434078
endloop
endfacet
facet normal 1.000000 0.000000 0.000000
outer loop
vertex 30.000010 -28.434080 -28.434078
vertex 30.000010 -22.340513 -33.434940
vertex 30.000008 -16.667101 -24.944084
endloop
endfacet
facet normal -1.000000 0.000000 -0.000000
outer loop
vertex -30.000006 27.716398 11.480457
vertex -30.000008 24.944107 16.667068
vertex -30.000010 33.434971 22.340466
endloop
endfacet
facet normal -1.000000 -0.000000 -0.000000
outer loop
vertex -30.000010 33.434971 22.340466
vertex -30.000008 37.150940 15.388356
vertex -30.000006 27.716398 11.480457
endloop
endfacet
facet normal 1.000000 -0.000001 0.000000
outer loop
vertex 29.999998 -21.213186 21.213223
vertex 29.999998 -16.667086 24.944107
vertex 29.999996 -22.340492 33.434967
endloop
endfacet
facet normal 1.000000 0.000000 0.000000
outer loop
vertex 29.999996 -22.340492 33.434967
vertex 29.999998 -28.434063 28.434109
vertex 29.999998 -21.213186 21.213223
endloop
endfacet
facet normal -1.000000 -0.000001 -0.000000
outer loop
vertex -29.999998 21.213198 -21.213207
vertex -30.000000 24.944084 -16.667112
vertex -30.000000 33.434940 -22.340523
endloop
endfacet
facet normal -1.000000 0.000000 -0.000000
outer loop
vertex -30.000000 33.434940 -22.340523
vertex -29.999998 28.434078 -28.434088
vertex -29.999998 21.213198 -21.213207
endloop
endfacet
facet normal 1.000000 0.000000 0.000000
outer loop
vertex 29.999992 24.944113 16.667080
vertex 29.999994 27.716406 11.480469
vertex 29.999992 37.150944 15.388368
endloop
endfacet
facet normal 1.000000 0.000000 0.000000
outer loop
vertex 29.999992 37.150944 15.388368
vertex 29.999990 33.434978 22.340477
vertex 29.999992 24.944113 16.667080
endloop
endfacet
facet normal -1.000000 -0.000001 -0.000000
outer loop
vertex -29.999992 -24.944094 -16.667110
vertex -29.999992 -21.213205 -21.213207
vertex -29.999990 -28.434088 -28.434088
endloop
endfacet
facet normal -1.000000 0.000000 -0.000000
outer loop
vertex -29.999990 -28.434088 -28.434088
vertex -29.999990 -33.434952 -22.340521
vertex -29.999992 -24.944094 -16.667110
endloop
endfacet
facet normal 1.000000 0.000001 0.000000
outer loop
vertex 30.000000 24.944092 -16.667101
vertex 30.000002 21.213205 -21.213196
vertex 30.000002 28.434086 -28.434078
endloop
endfacet
facet normal 1.000000 -0.000000 0.000000
outer loop
vertex 30.000002 28.434086 -28.434078
vertex 30.000000 33.434948 -22.340511
vertex 30.000000 24.944092 -16.667101
endloop
endfacet
facet normal -1.000000 0.000001 -0.000000
outer loop
vertex -30.000004 -11.480484 27.716389
vertex -30.000002 -16.667091 24.944096
vertex -30.000004 -22.340498 33.434952
endloop
endfacet
facet normal -1.000000 0.000000 -0.000000
outer loop
vertex -30.000004 -22.340498 33.434952
vertex -30.000006 -15.388392 37.150932
vertex -30.000004 -11.480484 27.716389
endloop
endfacet
facet normal 1.000000 0.000001 0.000000
outer loop
vertex 30.000008 -21.213198 -21.213196
vertex 30.000008 -24.944086 -16.667099
vertex 30.000010 -33.434948 -22.340509
endloop
endfacet
facet normal 1.000000 0.000000 0.000000
outer loop
vertex 30.000010 -33.434948 -22.340509
vertex 30.000010 -28.434080 -28.434078
vertex 30.000008 -21.213198 -21.213196
endloop
endfacet
facet normal -1.000000 -0.000001 -0.000000
outer loop
vertex -30.000006 29.423563 5.852658
vertex -30.000006 27.716398 11.480457
vertex -30.000008 37.150940 15.388356
endloop
endfacet
facet normal -1.000000 0.000000 -0.000000
outer loop
vertex -30.000008 37.150940 15.388356
vertex -30.000008 39.439217 7.844881
vertex -30.000006 29.423563 5.852658
endloop
endfacet
facet normal 1.000000 -0.000001 0.000000
outer loop
vertex 29.999998 -16.667086 24.944107
vertex 29.999996 -11.480476 27.716400
vertex 29.999994 -15.388386 37.150944
endloop
endfacet
facet normal 1.000000 0.000000 0.000000
outer loop
vertex 29.999994 -15.388386 37.150944
vertex 29.999996 -22.340492 33.434967
vertex 29.999998 -16.667086 24.944107
endloop
endfacet
facet normal -1.000000 0.000000 0.000000
outer loop
vertex -29.999998 16.667101 -24.944096
vertex -29.999998 21.213198 -21.213207
vertex -29.999998 28.434078 -28.434088
endloop
endfacet
facet normal -1.000000 0.000000 -0.000000
outer loop
vertex -29.999998 28.434078 -28.434088
vertex -29.999996 22.340508 -33.434952
vertex -29.999998 16.667101 -24.944096
endloop
endfacet
facet normal 1.000000 0.000000 0.000000
outer loop
vertex 29.999994 27.716406 11.480469
vertex 29.999994 29.423571 5.852670
vertex 29.999992 39.439224 7.844893
endloop
endfacet
facet normal 1.000000 0.000000 0.000000
outer loop
vertex 29.999992 39.439224 7.844893
vertex 29.999992 37.150944 15.388368
vertex 29.999994 27.716406 11.480469
endloop
endfacet
facet normal -1.000000 -0.000001 -0.000000
outer loop
vertex -29.999994 -27.716393 -11.480504
vertex -29.999992 -24.944094 -16.667110
vertex -29.999990 -33.434952 -22.340521
endloop
endfacet
facet normal -1.000000 0.000000 -0.000000
outer loop
vertex -29.999990 -33.434952 -22.340521
vertex -29.999992 -37.150932 -15.388414
vertex -29.999994 -27.716393 -11.480504
endloop
endfacet
facet normal 1.000000 0.000001 0.000000
outer loop
vertex 30.000002 21.213205 -21.213196
vertex 30.000002 16.667109 -24.944084
vertex 30.000004 22.340515 -33.434940
endloop
endfacet
facet normal 1.000000 0.000000 0.000000
outer loop
vertex 30.000004 22.340515 -33.434940
vertex 30.000002 28.434086 -28.434078
vertex 30.000002 21.213205 -21.213196
endloop
endfacet
facet normal -1.000000 0.000000 -0.000000
outer loop
vertex -30.000006 -5.852688 29.423557
vertex -30.000004 -11.480484 27.716389
vertex -30.000006 -15.388392 37.150932
endloop
endfacet
facet normal -1.000000 -0.000001 -0.000000
outer loop
vertex -30.000006 -15.388392 37.150932
vertex -30.000008 -7.844918 39.439209
vertex -30.000006 -5.852688 29.423557
endloop
endfacet
facet normal 1.000000 0.000000 0.000000
outer loop
vertex 30.000008 -24.944086 -16.667099
vertex 30.000006 -27.716385 -11.480493
vertex 30.000008 -37.150925 -15.388403
endloop
endfacet
facet normal 1.000000 0.000000 0.000000
outer loop
vertex 30.000008 -37.150925 -15.388403
vertex 30.000010 -33.434948 -22.340509
vertex 30.000008 -24.944086 -16.667099
endloop
endfacet
facet normal -1.000000 -0.000000 -0.000000
outer loop
vertex -30.000004 29.999996 -0.000006
vertex -30.000006 29.423563 5.852658
vertex -30.000008 39.439217 7.844881
endloop
endfacet
facet normal -1.000000 -0.000000 -0.000000
outer loop
vertex -30.000008 39.439217 7.844881
vertex -30.000006 40.211864 -0.000006
vertex -30.000004 29.999996 -0.000006
endloop
endfacet
facet normal 1.000000 0.000001 0.000000
outer loop
vertex 29.999996 -11.480476 27.716400
vertex 29.999994 -5.852679 29.423569
vertex 29.999992 -7.844911 39.439224
endloop
endfacet
facet normal 1.000000 0.000001 0.000000
outer loop
vertex 29.999992 -7.844911 39.439224
vertex 29.999994 -15.388386 37.150944
vertex 29.999996 -11.480476 27.716400
endloop
endfacet
facet normal -1.000000 0.000000 -0.000000
outer loop
vertex -29.999996 11.480499 -27.716391
vertex -29.999998 16.667101 -24.944096
vertex -29.999996 22.340508 -33.434952
endloop
endfacet
facet normal -1.000000 0.000000 -0.000000
outer loop
vertex -29.999996 22.340508 -33.434952
vertex -29.999994 15.388409 -37.150928
vertex -29.999996 11.480499 -27.716391
endloop
endfacet
facet normal 1.000000 0.000000 0.000000
outer loop
vertex 29.999994 29.423571 5.852670
vertex 29.999996 30.000004 0.000006
vertex 29.999994 40.211872 0.000006
endloop
endfacet
facet normal 1.000000 0.000000 0.000000
outer loop
vertex 29.999994 40.211872 0.000006
vertex 29.999992 39.439224 7.844893
vertex 29.999994 29.423571 5.852670
endloop
endfacet
facet normal -1.000000 -0.000000 -0.000000
outer loop
vertex -29.999994 -29.423563 -5.852709
vertex -29.999994 -27.716393 -11.480504
vertex -29.999992 -37.150932 -15.388414
endloop
endfacet
facet normal -1.000000 -0.000000 -0.000000
outer loop
vertex -29.999992 -37.150932 -15.388414
vertex -29.999992 -39.439217 -7.844942
vertex -29.999994 -29.423563 -5.852709
endloop
endfacet
facet normal 0.000000 -0.881922 -0.471396
outer loop
vertex -30.000006 27.716398 11.480457
vertex 29.999994 27.716406 11.480469
vertex 29.999992 24.944113 16.667080
endloop
endfacet
facet normal 0.000000 -0.881922 -0.471395
outer loop
vertex 29.999992 24.944113 16.667080
vertex -30.000008 24.944107 16.667068
vertex -30.000006 27.716398 11.480457
endloop
endfacet
facet normal 0.000000 -0.773011 -0.634392
outer loop
vertex -30.000008 24.944107 16.667068
vertex 29.999992 24.944113 16.667080
vertex 29.999992 21.213234 21.213181
endloop
endfacet
facet normal 0.000000 -0.773011 -0.634392
outer loop
vertex 29.999992 21.213234 21.213181
vertex -30.000008 21.213226 21.213171
vertex -30.000008 24.944107 16.667068
endloop
endfacet
facet normal 0.000000 -0.634394 -0.773010
outer loop
vertex -30.000008 21.213226 21.213171
vertex 29.999992 21.213234 21.213181
vertex 29.999992 16.667141 24.944073
endloop
endfacet
facet normal 0.000000 -0.634394 -0.773010
outer loop
vertex 29.999992 16.667141 24.944073
vertex -30.000008 16.667133 24.944061
vertex -30.000008 21.213226 21.213171
endloop
endfacet
facet normal 0.000000 -0.471398 -0.881921
outer loop
vertex -30.000008 16.667133 24.944061
vertex 29.999992 16.667141 24.944073
vertex 29.999992 11.480537 27.716377
endloop
endfacet
facet normal 0.000000 -0.471398 -0.881921
outer loop
vertex 29.999992 11.480537 27.716377
vertex -30.000008 11.480530 27.716366
vertex -30.000008 16.667133 24.944061
endloop
endfacet
facet normal 0.000000 -0.290286 -0.956940
outer loop
vertex -30.000008 11.480530 27.716366
vertex 29.999992 11.480537 27.716377
vertex 29.999994 5.852745 29.423557
endloop
endfacet
facet normal 0.000000 -0.290286 -0.956940
outer loop
vertex 29.999994 5.852745 29.423557
vertex -30.000006 5.852736 29.423546
vertex -30.000008 11.480530 27.716366
endloop
endfacet
facet normal 0.000000 -0.098018 -0.995185
outer loop
vertex -30.000006 5.852736 29.423546
vertex 29.999994 5.852745 29.423557
vertex 29.999994 0.000033 30.000006
endloop
endfacet
facet normal 0.000000 -0.098018 -0.995185
outer loop
vertex 29.999994 0.000033 30.000006
vertex -30.000006 0.000025 29.999994
vertex -30.000006 5.852736 29.423546
endloop
endfacet
facet normal 0.000000 0.098016 -0.995185
outer loop
vertex -30.000006 0.000025 29.999994
vertex 29.999994 0.000033 30.000006
vertex 29.999994 -5.852679 29.423569
endloop
endfacet
facet normal 0.000000 0.098016 -0.995185
outer loop
vertex 29.999994 -5.852679 29.423569
vertex -30.000006 -5.852688 29.423557
vertex -30.000006 0.000025 29.999994
endloop
endfacet
facet normal 0.000000 0.290284 -0.956941
outer loop
vertex -30.000006 -5.852688 29.423557
vertex 29.999994 -5.852679 29.423569
vertex 29.999996 -11.480476 27.716400
endloop
endfacet
facet normal 0.000000 0.290284 -0.956941
outer loop
vertex 29.999996 -11.480476 27.716400
vertex -30.000004 -11.480484 27.716389
vertex -30.000006 -5.852688 29.423557
endloop
endfacet
facet normal 0.000000 0.471396 -0.881922
outer loop
vertex -30.000004 -11.480484 27.716389
vertex 29.999996 -11.480476 27.716400
vertex 29.999998 -16.667086 24.944107
endloop
endfacet
facet normal 0.000000 0.471396 -0.881922
outer loop
vertex 29.999998 -16.667086 24.944107
vertex -30.000002 -16.667091 24.944096
vertex -30.000004 -11.480484 27.716389
endloop
endfacet
facet normal 0.000000 0.634392 -0.773011
outer loop
vertex -30.000002 -16.667091 24.944096
vertex 29.999998 -16.667086 24.944107
vertex 29.999998 -21.213186 21.213223
endloop
endfacet
facet normal 0.000000 0.634393 -0.773011
outer loop
vertex 29.999998 -21.213186 21.213223
vertex -30.000002 -21.213194 21.213211
vertex -30.000002 -16.667091 24.944096
endloop
endfacet
facet normal 0.000000 0.773010 -0.634394
outer loop
vertex -30.000002 -21.213194 21.213211
vertex 29.999998 -21.213186 21.213223
vertex 30.000000 -24.944075 16.667128
endloop
endfacet
facet normal 0.000000 0.773010 -0.634394
outer loop
vertex 30.000000 -24.944075 16.667128
vertex -30.000000 -24.944082 16.667116
vertex -30.000002 -21.213194 21.213211
endloop
endfacet
facet normal -0.000000 0.881921 -0.471397
outer loop
vertex -30.000000 -24.944082 16.667116
vertex 30.000000 -24.944075 16.667128
vertex 30.000002 -27.716375 11.480521
endloop
endfacet
facet normal -0.000000 0.881921 -0.471397
outer loop
vertex 30.000002 -27.716375 11.480521
vertex -29.999998 -27.716383 11.480511
vertex -30.000000 -24.944082 16.667116
endloop
endfacet
facet normal -0.000000 0.956940 -0.290285
outer loop
vertex -29.999998 -27.716383 11.480511
vertex 30.000002 -27.716375 11.480521
vertex 30.000004 -29.423552 5.852728
endloop
endfacet
facet normal -0.000000 0.956940 -0.290286
outer loop
vertex 30.000004 -29.423552 5.852728
vertex -29.999996 -29.423559 5.852715
vertex -29.999998 -27.716383 11.480511
endloop
endfacet
facet normal -0.000000 0.995185 -0.098017
outer loop
vertex -29.999996 -29.423559 5.852715
vertex 30.000004 -29.423552 5.852728
vertex 30.000004 -29.999996 0.000016
endloop
endfacet
facet normal -0.000000 0.995185 -0.098018
outer loop
vertex 30.000004 -29.999996 0.000016
vertex -29.999996 -30.000004 0.000004
vertex -29.999996 -29.423559 5.852715
endloop
endfacet
facet normal -0.000000 0.995185 0.098017
outer loop
vertex -29.999996 -30.000004 0.000004
vertex 30.000004 -29.999996 0.000016
vertex 30.000006 -29.423555 -5.852696
endloop
endfacet
facet normal -0.000000 0.995185 0.098017
outer loop
vertex 30.000006 -29.423555 -5.852696
vertex -29.999994 -29.423563 -5.852709
vertex -29.999996 -30.000004 0.000004
endloop
endfacet
facet normal -0.000000 0.956940 0.290285
outer loop
vertex -29.999994 -29.423563 -5.852709
vertex 30.000006 -29.423555 -5.852696
vertex 30.000006 -27.716385 -11.480493
endloop
endfacet
facet normal -0.000000 0.956940 0.290284
outer loop
vertex 30.000006 -27.716385 -11.480493
vertex -29.999994 -27.716393 -11.480504
vertex -29.999994 -29.423563 -5.852709
endloop
endfacet
facet normal -0.000000 0.881921 0.471397
outer loop
vertex -29.999994 -27.716393 -11.480504
vertex 30.000006 -27.716385 -11.480493
vertex 30.000008 -24.944086 -16.667099
endloop
endfacet
facet normal -0.000000 0.881921 0.471396
outer loop
vertex 30.000008 -24.944086 -16.667099
vertex -29.999992 -24.944094 -16.667110
vertex -29.999994 -27.716393 -11.480504
endloop
endfacet
facet normal -0.000000 0.773010 0.634394
outer loop
vertex -29.999992 -24.944094 -16.667110
vertex 30.000008 -24.944086 -16.667099
vertex 30.000008 -21.213198 -21.213196
endloop
endfacet
facet normal -0.000000 0.773010 0.634394
outer loop
vertex 30.000008 -21.213198 -21.213196
vertex -29.999992 -21.213205 -21.213207
vertex -29.999992 -24.944094 -16.667110
endloop
endfacet
facet normal -0.000000 0.634394 0.773010
outer loop
vertex -29.999992 -21.213205 -21.213207
vertex 30.000008 -21.213198 -21.213196
vertex 30.000008 -16.667101 -24.944084
endloop
endfacet
facet normal -0.000000 0.634394 0.773010
outer loop
vertex 30.000008 -16.667101 -24.944084
vertex -29.999992 -16.667109 -24.944096
vertex -29.999992 -21.213205 -21.213207
endloop
endfacet
facet normal -0.000000 0.471396 0.881922
outer loop
vertex -29.999992 -16.667109 -24.944096
vertex 30.000008 -16.667101 -24.944084
vertex 30.000008 -11.480494 -27.716381
endloop
endfacet
facet normal -0.000000 0.471397 0.881921
outer loop
vertex 30.000008 -11.480494 -27.716381
vertex -29.999992 -11.480502 -27.716393
vertex -29.999992 -16.667109 -24.944096
endloop
endfacet
facet normal -0.000000 0.290285 0.956940
outer loop
vertex -29.999992 -11.480502 -27.716393
vertex 30.000008 -11.480494 -27.716381
vertex 30.000006 -5.852702 -29.423553
endloop
endfacet
facet normal -0.000000 0.290285 0.956940
outer loop
vertex 30.000006 -5.852702 -29.423553
vertex -29.999994 -5.852710 -29.423565
vertex -29.999992 -11.480502 -27.716393
endloop
endfacet
facet normal -0.000000 0.098017 0.995185
outer loop
vertex -29.999994 -5.852710 -29.423565
vertex 30.000006 -5.852702 -29.423553
vertex 30.000006 0.000006 -29.999994
endloop
endfacet
facet normal -0.000000 0.098017 0.995185
outer loop
vertex 30.000006 0.000006 -29.999994
vertex -29.999994 -0.000002 -30.000006
vertex -29.999994 -5.852710 -29.423565
endloop
endfacet
facet normal -0.000000 -0.098017 0.995185
outer loop
vertex -29.999994 -0.000002 -30.000006
vertex 30.000006 0.000006 -29.999994
vertex 30.000006 5.852715 -29.423552
endloop
endfacet
facet normal -0.000000 -0.098017 0.995185
outer loop
vertex 30.000006 5.852715 -29.423552
vertex -29.999994 5.852706 -29.423563
vertex -29.999994 -0.000002 -30.000006
endloop
endfacet
facet normal -0.000000 -0.290285 0.956940
outer loop
vertex -29.999994 5.852706 -29.423563
vertex 30.000006 5.852715 -29.423552
vertex 30.000004 11.480507 -27.716379
endloop
endfacet
facet normal -0.000000 -0.290285 0.956940
outer loop
vertex 30.000004 11.480507 -27.716379
vertex -29.999996 11.480499 -27.716391
vertex -29.999994 5.852706 -29.423563
endloop
endfacet
facet normal -0.000000 -0.471397 0.881921
outer loop
vertex -29.999996 11.480499 -27.716391
vertex 30.000004 11.480507 -27.716379
vertex 30.000002 16.667109 -24.944084
endloop
endfacet
facet normal -0.000000 -0.471397 0.881921
outer loop
vertex 30.000002 16.667109 -24.944084
vertex -29.999998 16.667101 -24.944096
vertex -29.999996 11.480499 -27.716391
endloop
endfacet
facet normal -0.000000 -0.634394 0.773010
outer loop
vertex -29.999998 16.667101 -24.944096
vertex 30.000002 16.667109 -24.944084
vertex 30.000002 21.213205 -21.213196
endloop
endfacet
facet normal -0.000000 -0.634394 0.773010
outer loop
vertex 30.000002 21.213205 -21.213196
vertex -29.999998 21.213198 -21.213207
vertex -29.999998 16.667101 -24.944096
endloop
endfacet
facet normal -0.000000 -0.773010 0.634393
outer loop
vertex -29.999998 21.213198 -21.213207
vertex 30.000002 21.213205 -21.213196
vertex 30.000000 24.944092 -16.667101
endloop
endfacet
facet normal 0.000000 -0.773010 0.634394
outer loop
vertex 30.000000 24.944092 -16.667101
vertex -30.000000 24.944084 -16.667112
vertex -29.999998 21.213198 -21.213207
endloop
endfacet
facet normal 0.000000 -0.881921 0.471397
outer loop
vertex -30.000000 24.944084 -16.667112
vertex 30.000000 24.944092 -16.667101
vertex 29.999998 27.716389 -11.480498
endloop
endfacet
facet normal 0.000000 -0.881921 0.471397
outer loop
vertex 29.999998 27.716389 -11.480498
vertex -30.000002 27.716381 -11.480510
vertex -30.000000 24.944084 -16.667112
endloop
endfacet
facet normal 0.000000 -0.956940 0.290284
outer loop
vertex -30.000002 27.716381 -11.480510
vertex 29.999998 27.716389 -11.480498
vertex 29.999996 29.423561 -5.852704
endloop
endfacet
facet normal 0.000000 -0.956940 0.290285
outer loop
vertex 29.999996 29.423561 -5.852704
vertex -30.000004 29.423553 -5.852715
vertex -30.000002 27.716381 -11.480510
endloop
endfacet
facet normal 0.000000 -0.995185 0.098018
outer loop
vertex 29.999996 30.000004 0.000006
vertex -30.000004 29.999996 -0.000006
vertex -30.000004 29.423553 -5.852715
endloop
endfacet
facet normal 0.000000 -0.995185 0.098017
outer loop
vertex -30.000004 29.423553 -5.852715
vertex 29.999996 29.423561 -5.852704
vertex 29.999996 30.000004 0.000006
endloop
endfacet
endsolid Exported from Blender-2.79 (sub 0)
